<?xml version="1.0" encoding="UTF-8"?>
<svg id="Layer_1" data-name="Layer 1" xmlns="http://www.w3.org/2000/svg" xmlns:xlink="http://www.w3.org/1999/xlink" viewBox="0 0 512 512">
  <defs>
    <style>
      .cls-1 {
        fill: url(#linear-gradient);
      }
    </style>
    <linearGradient id="linear-gradient" x1="155.68" y1="108.02" x2="311.15" y2="407.08" gradientUnits="userSpaceOnUse">
      <stop offset="0" stop-color="#6bffe1"/>
      <stop offset="0" stop-color="#67f7da"/>
      <stop offset="1" stop-color="#04a9ff"/>
    </linearGradient>
  </defs>
  <path class="cls-1" d="M500.69,278.08c-6.24-25.12-21.58-45.81-43.19-58.24-22.21-12.77-49.89-16.13-76.54-9.41-6.76-53.93-46.97-99.21-99.04-110.9-60.47-13.56-118.89,14.34-146.11,69.52-58.97-2-109.59,35.81-123.57,92.62-9.31,37.91-2.36,74.89,19.56,104.13,22.03,29.38,57.23,47.22,96.57,48.93,19.53.84,39.54,1.14,59.69,1.14,25.16,0,50.52-.47,75.42-.92,18.47-.34,37.58-.69,55.94-.83,9.25-.07,18.73.11,28.76.29,17.46.32,35.5.65,52.14-.39,32.29-2,62.12-18.58,81.84-45.47,19.47-26.55,26.22-59.53,18.54-90.46ZM193.14,271.79c-1.2,1.39-2.52,2.79-3.94,4.17l-28.76,7.72c-2.67.74-5.02,2.38-6.6,4.6l-38.12,52.98c-.23.33-.45.66-.64.98-1.1,1.52-2.22,3.04-3.35,4.55-.43.58-.66,1.27-.67,1.98l-.02,1.37c-.01.93.35,1.82,1,2.48l12.62,12.64c.29.32.6.63.78.78l2.75,2.77c.42.42.94.73,1.51.89l1.97.55c.84.23,1.73.14,2.5-.26l2.02-1.05c1.06-.22,2.08-.59,3.03-1.09l58.65-30.94c.23-.12.44-.23.66-.37l1.94-1.01c.81-.42,1.42-1.15,1.7-2.02l.23-.74c.32-.48.59-.97.81-1.47l12.66-27.04c2.4-2.33,4.65-4.71,6.69-7.08,4.35-5.03,8.04-10.36,10.97-15.84,7.95-14.85,10.28-32.1,6.39-47.33-3.9-15.28-14.17-28.68-31.38-40.99-.88-.63-1.77-1.25-2.65-1.85-2.91-2.02-5.64-3.78-8.22-5.31-.19-.13-.37-.25-.57-.36-6.33-3.72-13.31-7.12-20.76-10.12,2.03-2.95,5.85-7.76,8.1-10.28,22.99-25.6,56.46-35.93,89.51-27.63,33.96,8.53,59.26,34.2,67.69,68.67,3.49,14.28,4.62,33.15-1.17,40.86-3.43,4.56-24.63,25.95-28.67,28.61-3.11,2.05-7.68,2.44-12.51,2.85-3.49.3-7.1.6-10.49,1.57-21.39,6.09-34.94,30.23-29.55,52.92.77,3.22,2.36,9.93,9.51,8.67,2.77-.49,6.18-3.85,17.38-17.1,2.14-2.53,4.17-4.94,5.24-6.06,5.53-3.25,11.54-1.06,15.36,2.13,4.25,3.54,7.45,9.8,5.19,15.88-.98,1.43-4.6,5.18-7.54,8.23-10.18,10.56-12.7,13.6-12.46,16.52.17,1.94,1.17,3.62,2.83,4.74,6.4,4.33,22.67-.54,22.83-.59,21.13-6.37,33.72-24.83,31.33-45.94-.47-4.12-1.7-7.72-2.78-10.9-2.33-6.83-3.88-11.34,1.6-18.35,6.55-8.42,31-33.45,39.22-38.21,13.03-7.55,28.2-8.59,42.7-2.94,15.51,6.05,27.69,19,32.56,34.63,6.19,19.85,2.3,41.91-10.66,60.51-12.91,18.52-32.96,30.23-53.65,31.33H123.8c-30.01-1.78-54.85-17.85-68.14-44.08-13.92-27.45-11.96-59.77,5.25-86.45,15.67-24.28,44.11-37.86,72.96-37.86,14.85,0,29.8,3.6,43.17,11.19.02.02.21.15.22.15,8.62,5.76,17.4,12.13,21.7,21.17,4.8,10.1,2.58,22.4-5.81,32.1Z"/>
</svg>