<?xml version="1.0" encoding="UTF-8"?>
<svg id="Layer_1" data-name="Layer 1" xmlns="http://www.w3.org/2000/svg" xmlns:xlink="http://www.w3.org/1999/xlink" viewBox="0 0 390.07 359.05">
  <defs>
    <style>
      .cls-1 {
        fill: url(#linear-gradient);
      }

      .cls-2 {
        fill: #49e2eb;
      }

      .cls-3 {
        fill: #04a9ff;
      }

      .cls-4 {
        fill: #26c6f5;
      }

      .cls-5 {
        fill: #00093d;
      }
    </style>
    <linearGradient id="linear-gradient" x1="142.9" y1="6.18" x2="223.77" y2="161.74" gradientUnits="userSpaceOnUse">
      <stop offset="0" stop-color="#6bffe1"/>
      <stop offset="0" stop-color="#67f7da"/>
      <stop offset="1" stop-color="#04a9ff"/>
    </linearGradient>
  </defs>
  <path class="cls-1" d="M322.36,94.64c-3.25-13.07-11.23-23.83-22.46-30.29-11.55-6.64-25.95-8.39-39.81-4.89-3.51-28.05-24.43-51.61-51.52-57.69-31.45-7.05-61.84,7.46-76,36.16-30.67-1.04-57,18.63-64.28,48.18-4.84,19.72-1.23,38.95,10.18,54.16,11.46,15.28,29.77,24.56,50.23,25.45,10.16.44,20.57.59,31.04.59,13.09,0,26.28-.24,39.23-.48,9.61-.18,19.54-.36,29.1-.43,4.81-.04,9.74.06,14.96.15,9.08.16,18.47.34,27.12-.2,16.8-1.04,32.31-9.66,42.57-23.65,10.13-13.81,13.64-30.96,9.64-47.05ZM162.39,91.36c-.62.72-1.31,1.45-2.05,2.17l-14.96,4.01c-1.39.38-2.61,1.24-3.43,2.39l-19.83,27.56c-.12.17-.23.34-.33.51-.57.79-1.16,1.58-1.74,2.37-.22.3-.34.66-.35,1.03v.71c-.02.48.17.95.51,1.29l6.56,6.57c.15.16.31.33.4.41l1.43,1.44c.22.22.49.38.79.46l1.02.29c.44.12.9.07,1.3-.13l1.05-.54c.55-.12,1.08-.31,1.58-.57l30.51-16.09c.12-.06.23-.12.34-.19l1.01-.52c.42-.22.74-.6.88-1.05l.12-.38c.16-.25.3-.5.42-.76l6.58-14.06c1.25-1.21,2.42-2.45,3.48-3.68,2.26-2.62,4.18-5.39,5.71-8.24,4.13-7.73,5.35-16.7,3.32-24.62-2.03-7.95-7.37-14.92-16.32-21.32-.46-.33-.92-.65-1.38-.96-1.51-1.05-2.93-1.97-4.28-2.76-.1-.07-.19-.13-.3-.19-3.29-1.94-6.92-3.71-10.8-5.26,1.06-1.54,3.04-4.04,4.21-5.35,11.96-13.32,29.37-18.69,46.56-14.37,17.66,4.43,30.83,17.79,35.21,35.72,1.82,7.43,2.4,17.24-.61,21.25-1.78,2.37-12.81,13.5-14.91,14.88-1.62,1.07-3.99,1.27-6.51,1.48-1.82.15-3.69.31-5.45.82-11.13,3.17-18.18,15.72-15.37,27.53.4,1.68,1.23,5.16,4.95,4.51,1.44-.26,3.22-2,9.04-8.89,1.11-1.32,2.17-2.57,2.73-3.15,2.88-1.69,6-.55,7.99,1.11,2.21,1.84,3.88,5.1,2.7,8.26-.51.74-2.39,2.7-3.92,4.28-5.29,5.49-6.61,7.08-6.48,8.59.09,1.01.61,1.88,1.47,2.47,3.33,2.25,11.79-.28,11.87-.3,10.99-3.31,17.54-12.92,16.3-23.89-.24-2.15-.88-4.02-1.45-5.67-1.21-3.55-2.02-5.9.83-9.55,3.41-4.38,16.13-17.4,20.4-19.87,6.78-3.93,14.67-4.47,22.21-1.53,8.07,3.15,14.4,9.88,16.94,18.01,3.22,10.33,1.2,21.8-5.54,31.47-6.71,9.63-17.14,15.72-27.91,16.3H126.32c-15.61-.93-28.53-9.29-35.44-22.93-7.24-14.28-6.22-31.09,2.73-44.97,8.15-12.63,22.95-19.69,37.95-19.69,7.72,0,15.5,1.87,22.45,5.82.01,0,.11.08.12.08,4.49,2.99,9.05,6.31,11.29,11.01,2.5,5.25,1.34,11.65-3.02,16.7Z"/>
  <g>
    <path class="cls-2" d="M112.16,314l-10.36-68.57-31.33,68.38h-5.6l-31.33-68.37-10.39,68.56H0l16.46-105.08h22.78l28.42,64.42,28.56-64.42h22.83l16.28,105.08h-23.16Z"/>
    <path class="cls-4" d="M230.99,292.9v21.1h-63.06v-105.08h22.74v83.98h40.33Z"/>
    <path class="cls-3" d="M366.91,314l-10.36-68.57-31.33,68.38h-5.6l-31.33-68.37-10.39,68.56h-23.16l16.46-105.08h22.78l28.42,64.42,28.56-64.42h22.83l16.28,105.08h-23.16Z"/>
  </g>
  <g>
    <path class="cls-5" d="M34.11,358.7l-2.64-15.88-7.01,15.36h-.68l-7.01-15.34-2.67,15.86h-2.6l3.42-20.33h2.46l6.71,14.92,6.74-14.92h2.51l3.37,20.33h-2.6Z"/>
    <path class="cls-5" d="M52.98,353.84h-9.77l-1.99,4.87h-2.71l8.32-20.33h2.38l8.55,20.33h-2.76l-2.02-4.87ZM44.16,351.5h7.86l-3.96-9.61-3.9,9.61Z"/>
    <path class="cls-5" d="M77.25,338.38v20.33h-2.15l-11.57-15.86v15.86h-2.49v-20.33h2.31l11.41,15.68v-15.68h2.5Z"/>
    <path class="cls-5" d="M95.54,340.77h-6.19v17.94h-2.55v-17.94h-6.19v-2.39h14.92v2.39Z"/>
    <path class="cls-5" d="M110.77,356.26v2.44h-11.83v-20.33h11.51v2.42h-8.96v6.28h8.21v2.36h-8.21v6.83h9.28Z"/>
    <path class="cls-5" d="M131.21,338.38v20.33h-2.15l-11.57-15.86v15.86h-2.49v-20.33h2.31l11.41,15.68v-15.68h2.5Z"/>
    <path class="cls-5" d="M136.75,338.38h2.55v20.33h-2.55v-20.33Z"/>
    <path class="cls-5" d="M156.68,356.26v2.44h-11.83v-20.33h11.51v2.42h-8.96v6.28h8.21v2.36h-8.21v6.83h9.28Z"/>
    <path class="cls-5" d="M177.13,338.38v20.33h-2.15l-11.57-15.86v15.86h-2.49v-20.33h2.31l11.41,15.68v-15.68h2.5Z"/>
    <path class="cls-5" d="M199.76,348.54c0,5.89-4.33,10.17-10.31,10.17h-6.78v-20.33h6.78c5.98,0,10.31,4.27,10.31,10.16ZM197.16,348.54c0-4.5-3.23-7.77-7.79-7.77h-4.15v15.55h4.15c4.56,0,7.79-3.28,7.79-7.78Z"/>
    <path class="cls-5" d="M202.58,348.54c0-6,4.49-10.51,10.64-10.51s10.64,4.5,10.64,10.51-4.49,10.5-10.64,10.5-10.64-4.5-10.64-10.5ZM221.25,348.54c0-4.59-3.41-8.01-8.04-8.01s-8.04,3.46-8.04,8.01,3.41,8.01,8.04,8.01,8.04-3.43,8.04-8.01Z"/>
    <path class="cls-5" d="M247.12,356.32v2.39h-11.48v-20.33h2.55v17.94h8.93Z"/>
    <path class="cls-5" d="M262.7,353.84h-9.77l-1.99,4.87h-2.71l8.32-20.33h2.38l8.55,20.33h-2.76l-2.02-4.87ZM253.88,351.5h7.86l-3.96-9.61-3.9,9.61Z"/>
    <path class="cls-5" d="M298.61,358.7l-2.64-15.88-7.01,15.36h-.68l-7.01-15.34-2.67,15.86h-2.6l3.42-20.33h2.46l6.71,14.92,6.74-14.92h2.51l3.37,20.33h-2.6Z"/>
    <path class="cls-5" d="M305.29,338.38h2.55v20.33h-2.55v-20.33Z"/>
    <path class="cls-5" d="M311.95,352.44h2.6c0,2.53,2.06,4.03,4.87,4.03,2.55,0,4.57-1.35,4.57-3.51,0-2.38-2.41-2.94-5.05-3.55-3.14-.75-6.61-1.58-6.61-5.64,0-3.51,2.71-5.65,6.92-5.65s6.79,2.34,6.79,6.02h-2.52c0-2.26-1.84-3.58-4.32-3.58s-4.32,1.18-4.32,3.11c0,2.23,2.34,2.79,4.94,3.41,3.2.78,6.8,1.63,6.8,5.86,0,3.84-3.12,6.03-7.17,6.03-4.47,0-7.5-2.52-7.5-6.52Z"/>
    <path class="cls-5" d="M330.73,338.38h2.55v20.33h-2.55v-20.33Z"/>
    <path class="cls-5" d="M337.45,348.54c0-6,4.49-10.51,10.64-10.51s10.64,4.5,10.64,10.51-4.49,10.5-10.64,10.5-10.64-4.5-10.64-10.5ZM356.12,348.54c0-4.59-3.41-8.01-8.04-8.01s-8.04,3.46-8.04,8.01,3.41,8.01,8.04,8.01,8.04-3.43,8.04-8.01ZM348.96,331.97h2.63l-2.8,4.12h-1.94l2.11-4.12Z"/>
    <path class="cls-5" d="M379.12,338.38v20.33h-2.15l-11.57-15.86v15.86h-2.49v-20.33h2.31l11.41,15.68v-15.68h2.5Z"/>
  </g>
</svg>