<?xml version="1.0" encoding="UTF-8"?>
<svg id="Layer_1" data-name="Layer 1" xmlns="http://www.w3.org/2000/svg" xmlns:xlink="http://www.w3.org/1999/xlink" viewBox="0 0 377.86 91.68">
  <defs>
    <style>
      .cls-1 {
        fill: url(#linear-gradient);
      }

      .cls-2 {
        fill: #49e2eb;
      }

      .cls-3 {
        fill: #fff;
      }

      .cls-4 {
        fill: #04a9ff;
      }

      .cls-5 {
        fill: #26c6f5;
      }
    </style>
    <linearGradient id="linear-gradient" x1="42.2" y1="3.4" x2="86.69" y2="88.98" gradientUnits="userSpaceOnUse">
      <stop offset="0" stop-color="#6bffe1"/>
      <stop offset="0" stop-color="#67f7da"/>
      <stop offset="1" stop-color="#04a9ff"/>
    </linearGradient>
  </defs>
  <path class="cls-1" d="M140.93,52.06c-1.79-7.19-6.18-13.11-12.36-16.67-6.35-3.66-14.28-4.62-21.9-2.69-1.93-15.43-13.44-28.39-28.34-31.74-17.3-3.88-34.02,4.1-41.81,19.89-16.88-.57-31.36,10.25-35.36,26.5-2.66,10.85-.67,21.43,5.6,29.8,6.3,8.41,16.38,13.51,27.63,14,5.59.24,11.31.33,17.08.33,7.2,0,14.46-.13,21.58-.26,5.29-.1,10.75-.2,16.01-.24,2.65-.02,5.36.03,8.23.08,4.99.09,10.16.18,14.92-.11,9.24-.57,17.78-5.32,23.42-13.01,5.57-7.6,7.5-17.03,5.3-25.89ZM52.92,50.26c-.34.4-.72.8-1.13,1.19l-8.23,2.21c-.76.21-1.44.68-1.89,1.32l-10.91,15.16c-.06.09-.13.19-.18.28-.32.43-.64.87-.96,1.3-.12.16-.19.36-.19.57v.39c-.01.27.09.52.28.71l3.61,3.62c.08.09.17.18.22.22l.79.79c.12.12.27.21.43.25l.56.16c.24.07.5.04.72-.07l.58-.3c.3-.06.6-.17.87-.31l16.78-8.85c.07-.03.13-.07.19-.1l.56-.29c.23-.12.41-.33.49-.58l.07-.21c.09-.14.17-.28.23-.42l3.62-7.74c.69-.67,1.33-1.35,1.91-2.03,1.25-1.44,2.3-2.96,3.14-4.53,2.27-4.25,2.94-9.19,1.83-13.54-1.12-4.37-4.05-8.21-8.98-11.73-.25-.18-.51-.36-.76-.53-.83-.58-1.61-1.08-2.35-1.52-.05-.04-.11-.07-.16-.1-1.81-1.07-3.81-2.04-5.94-2.9.58-.84,1.67-2.22,2.32-2.94,6.58-7.33,16.16-10.28,25.61-7.91,9.72,2.44,16.96,9.79,19.37,19.65,1,4.09,1.32,9.49-.33,11.69-.98,1.3-7.05,7.42-8.21,8.19-.89.59-2.2.7-3.58.81-1,.08-2.03.17-3,.45-6.12,1.74-10,8.65-8.45,15.14.22.92.68,2.84,2.72,2.48.79-.14,1.77-1.1,4.97-4.89.61-.72,1.19-1.41,1.5-1.73,1.58-.93,3.3-.3,4.4.61,1.21,1.01,2.13,2.8,1.48,4.55-.28.41-1.32,1.48-2.16,2.35-2.91,3.02-3.63,3.89-3.56,4.73.05.55.33,1.04.81,1.36,1.83,1.24,6.49-.15,6.53-.17,6.05-1.82,9.65-7.11,8.97-13.15-.13-1.18-.49-2.21-.8-3.12-.67-1.95-1.11-3.24.46-5.25,1.88-2.41,8.87-9.57,11.22-10.93,3.73-2.16,8.07-2.46,12.22-.84,4.44,1.73,7.92,5.44,9.32,9.91,1.77,5.68.66,11.99-3.05,17.32-3.69,5.3-9.43,8.65-15.35,8.97H33.08c-8.59-.51-15.7-5.11-19.5-12.61-3.98-7.86-3.42-17.1,1.5-24.74,4.48-6.95,12.62-10.83,20.88-10.83,4.25,0,8.53,1.03,12.35,3.2,0,0,.06.04.06.04,2.47,1.65,4.98,3.47,6.21,6.06,1.37,2.89.74,6.41-1.66,9.19Z"/>
  <g>
    <g>
      <path class="cls-2" d="M224.97,66.9l-5.7-37.72-17.23,37.62h-3.08l-17.24-37.61-5.71,37.72h-12.74l9.05-57.81h12.53l15.63,35.44,15.71-35.44h12.56l8.96,57.81h-12.74Z"/>
      <path class="cls-5" d="M290.34,55.29v11.61h-34.69V9.09h12.51v46.2h22.18Z"/>
      <path class="cls-4" d="M365.12,66.9l-5.7-37.72-17.23,37.62h-3.08l-17.24-37.61-5.71,37.72h-12.74l9.05-57.81h12.53l15.63,35.44,15.71-35.44h12.56l8.96,57.81h-12.74Z"/>
    </g>
    <g>
      <path class="cls-3" d="M182.03,91.49l-1.45-8.74-3.86,8.45h-.38l-3.86-8.44-1.47,8.73h-1.43l1.88-11.18h1.35l3.69,8.21,3.71-8.21h1.38l1.85,11.18h-1.43Z"/>
      <path class="cls-3" d="M192.41,88.81h-5.37l-1.09,2.68h-1.49l4.58-11.18h1.31l4.7,11.18h-1.52l-1.11-2.68ZM187.56,87.53h4.32l-2.18-5.29-2.14,5.29Z"/>
      <path class="cls-3" d="M205.77,80.31v11.18h-1.18l-6.36-8.73v8.73h-1.37v-11.18h1.27l6.28,8.63v-8.63h1.37Z"/>
      <path class="cls-3" d="M215.83,81.62h-3.4v9.87h-1.4v-9.87h-3.4v-1.31h8.21v1.31Z"/>
      <path class="cls-3" d="M224.21,90.15v1.34h-6.51v-11.18h6.33v1.33h-4.93v3.46h4.52v1.3h-4.52v3.75h5.11Z"/>
      <path class="cls-3" d="M235.45,80.31v11.18h-1.18l-6.36-8.73v8.73h-1.37v-11.18h1.27l6.28,8.63v-8.63h1.37Z"/>
      <path class="cls-3" d="M238.5,80.31h1.4v11.18h-1.4v-11.18Z"/>
      <path class="cls-3" d="M249.47,90.15v1.34h-6.51v-11.18h6.33v1.33h-4.93v3.46h4.52v1.3h-4.52v3.75h5.11Z"/>
      <path class="cls-3" d="M260.71,80.31v11.18h-1.18l-6.36-8.73v8.73h-1.37v-11.18h1.27l6.28,8.63v-8.63h1.37Z"/>
      <path class="cls-3" d="M273.16,85.9c0,3.24-2.38,5.59-5.67,5.59h-3.73v-11.18h3.73c3.29,0,5.67,2.35,5.67,5.59ZM271.73,85.9c0-2.47-1.78-4.28-4.28-4.28h-2.28v8.55h2.28c2.51,0,4.28-1.8,4.28-4.28Z"/>
      <path class="cls-3" d="M274.71,85.9c0-3.3,2.47-5.78,5.85-5.78s5.85,2.48,5.85,5.78-2.47,5.78-5.85,5.78-5.85-2.48-5.85-5.78ZM284.99,85.9c0-2.52-1.88-4.41-4.42-4.41s-4.42,1.9-4.42,4.41,1.88,4.41,4.42,4.41,4.42-1.88,4.42-4.41Z"/>
      <path class="cls-3" d="M299.22,90.18v1.31h-6.32v-11.18h1.4v9.87h4.91Z"/>
      <path class="cls-3" d="M307.79,88.81h-5.37l-1.09,2.68h-1.49l4.58-11.18h1.31l4.7,11.18h-1.52l-1.11-2.68ZM302.94,87.53h4.32l-2.18-5.29-2.14,5.29Z"/>
      <path class="cls-3" d="M327.54,91.49l-1.45-8.74-3.86,8.45h-.38l-3.86-8.44-1.47,8.73h-1.43l1.88-11.18h1.35l3.69,8.21,3.71-8.21h1.38l1.85,11.18h-1.43Z"/>
      <path class="cls-3" d="M331.22,80.31h1.4v11.18h-1.4v-11.18Z"/>
      <path class="cls-3" d="M334.89,88.04h1.43c0,1.39,1.13,2.22,2.68,2.22,1.4,0,2.51-.75,2.51-1.93,0-1.31-1.33-1.62-2.78-1.96-1.73-.41-3.64-.87-3.64-3.1,0-1.93,1.49-3.11,3.81-3.11s3.74,1.29,3.74,3.31h-1.39c0-1.24-1.01-1.97-2.38-1.97s-2.38.65-2.38,1.71c0,1.23,1.29,1.54,2.72,1.87,1.76.43,3.74.9,3.74,3.22,0,2.11-1.72,3.32-3.94,3.32-2.46,0-4.13-1.39-4.13-3.59Z"/>
      <path class="cls-3" d="M345.22,80.31h1.4v11.18h-1.4v-11.18Z"/>
      <path class="cls-3" d="M348.92,85.9c0-3.3,2.47-5.78,5.85-5.78s5.85,2.48,5.85,5.78-2.47,5.78-5.85,5.78-5.85-2.48-5.85-5.78ZM359.19,85.9c0-2.52-1.88-4.41-4.42-4.41s-4.42,1.9-4.42,4.41,1.88,4.41,4.42,4.41,4.42-1.88,4.42-4.41ZM355.25,76.78h1.45l-1.54,2.27h-1.07l1.16-2.27Z"/>
      <path class="cls-3" d="M371.84,80.31v11.18h-1.18l-6.36-8.73v8.73h-1.37v-11.18h1.27l6.28,8.63v-8.63h1.37Z"/>
    </g>
  </g>
</svg>